<svg width="24" height="24" viewBox="0 0 24 24" fill="none" xmlns="http://www.w3.org/2000/svg">
<path d="M12 11.498C13.5348 11.498 14.779 9.20391 14.779 6.374C14.779 3.54409 13.5348 1.25 12 1.25C10.4652 1.25 9.221 3.54409 9.221 6.374C9.221 9.20391 10.4652 11.498 12 11.498Z" stroke="black" stroke-width="0.5" stroke-linecap="round" stroke-linejoin="round"/>
<path d="M17.943 9.98705C19.9441 7.98601 20.6865 5.48406 19.6012 4.39879C18.5159 3.31352 16.014 4.05591 14.013 6.05695C12.0119 8.058 11.2695 10.56 12.3548 11.6452C13.4401 12.7305 15.942 11.9881 17.943 9.98705Z" stroke="black" stroke-width="0.5" stroke-linecap="round" stroke-linejoin="round"/>
<path d="M17.626 14.779C20.4559 14.779 22.75 13.5348 22.75 12C22.75 10.4652 20.4559 9.221 17.626 9.221C14.7961 9.221 12.502 10.4652 12.502 12C12.502 13.5348 14.7961 14.779 17.626 14.779Z" stroke="black" stroke-width="0.5" stroke-linecap="round" stroke-linejoin="round"/>
<path d="M19.6012 19.6012C20.6865 18.5159 19.9441 16.014 17.943 14.0129C15.942 12.0119 13.4401 11.2695 12.3548 12.3548C11.2695 13.44 12.0119 15.942 14.013 17.943C16.014 19.9441 18.5159 20.6865 19.6012 19.6012Z" stroke="black" stroke-width="0.5" stroke-linecap="round" stroke-linejoin="round"/>
<path d="M12 22.75C13.5348 22.75 14.779 20.4559 14.779 17.626C14.779 14.7961 13.5348 12.502 12 12.502C10.4652 12.502 9.221 14.7961 9.221 17.626C9.221 20.4559 10.4652 22.75 12 22.75Z" stroke="black" stroke-width="0.5" stroke-linecap="round" stroke-linejoin="round"/>
<path d="M9.98705 17.9431C11.9881 15.942 12.7305 13.4401 11.6452 12.3548C10.5599 11.2695 8.058 12.0119 6.05695 14.013C4.0559 16.014 3.31352 18.516 4.39878 19.6012C5.48405 20.6865 7.986 19.9441 9.98705 17.9431Z" stroke="black" stroke-width="0.5" stroke-linecap="round" stroke-linejoin="round"/>
<path d="M6.374 14.779C9.20391 14.779 11.498 13.5348 11.498 12C11.498 10.4652 9.20391 9.221 6.374 9.221C3.54409 9.221 1.25 10.4652 1.25 12C1.25 13.5348 3.54409 14.779 6.374 14.779Z" stroke="black" stroke-width="0.5" stroke-linecap="round" stroke-linejoin="round"/>
<path d="M11.6452 11.6452C12.7305 10.5599 11.9881 8.05799 9.98705 6.05695C7.986 4.0559 5.48405 3.31351 4.39878 4.39878C3.31352 5.48405 4.0559 7.986 6.05695 9.98705C8.058 11.9881 10.5599 12.7305 11.6452 11.6452Z" stroke="black" stroke-width="0.5" stroke-linecap="round" stroke-linejoin="round"/>
</svg>
